<?xml version="1.0" encoding="iso-8859-1"?>
<!-- Uploaded to: SVG Repo, www.svgrepo.com, Generator: SVG Repo Mixer Tools -->
<svg fill="#000000" height="800px" width="800px" version="1.1" id="Layer_1" xmlns="http://www.w3.org/2000/svg" xmlns:xlink="http://www.w3.org/1999/xlink" 
	 viewBox="0 0 511.999 511.999" xml:space="preserve">
<g>
	<g>
		<path d="M511.799,275.149c-9.219-3.741-18.69-6.569-28.28-8.509c-21.23,74.012-79.591,132.477-153.538,153.863
			c2.256,6.752,4.182,13.552,5.793,20.376c38.284,4.277,77.481-5.339,109.576-28.14
			C489.468,381.397,514.509,329.189,511.799,275.149z"/>
	</g>
</g>
<g>
	<g>
		<path d="M449.992,122.404c-0.367,0.033-0.737,0.284-1.112,0.284h-95.034c6.986,23.093,10.994,48.618,11.661,74.142h102.189
			C466.647,170.091,460.424,145.319,449.992,122.404z"/>
	</g>
</g>
<g>
	<g>
		<path d="M85.391,122.689c-10.418,21.878-16.63,47.402-17.679,74.142h102.197c0.692-25.524,4.778-51.049,12.017-74.142H85.391z"/>
	</g>
</g>
<g>
	<g>
		<path d="M98.558,98.38h91.947c1.36-3.646,2.761-6.916,4.25-10.199c14.794-32.631,35.567-61.035,60.302-82.759
			C189.244,9.547,131.957,44.9,98.558,98.38z"/>
	</g>
</g>
<g>
	<g>
		<path d="M170.274,221.139H68.206c0.328,3.646,0.784,8.067,1.352,12.051c9.838,0.089,19.776,0.743,29.756,2.003
			c25.437,3.212,50.763,10.273,74.983,20.745C172.284,244.549,170.93,233.294,170.274,221.139z"/>
	</g>
</g>
<g>
	<g>
		<path d="M280.491,5.548c28.178,24.234,50.295,56.369,64.92,92.832h91.439C403.476,44.9,346.247,9.714,280.491,5.548z"/>
	</g>
</g>
<g>
	<g>
		<path d="M365.118,221.139c-0.988,17.016-3.498,34.032-7.482,51.049h91.244c2.436,0,6.978,0.021,6.978,0.021
			c5.546-15.878,9.848-32.838,11.346-51.069H365.118z"/>
	</g>
</g>
<g>
	<g>
		<path d="M350.667,296.497c-2.832,8.508-6.035,16.779-9.638,24.855c-8.662,19.407-19.411,37.323-31.817,53.206
			c4.388,7.597,8.34,15.335,11.865,23.185c54.159-15,99.168-52.627,124.523-101.245H350.667z"/>
	</g>
</g>
<g>
	<g>
		<path d="M328.432,122.689H207.537c-7.914,23.093-12.521,48.618-13.297,74.142h146.941
			C340.451,171.306,336.067,145.782,328.432,122.689z"/>
	</g>
</g>
<g>
	<g>
		<path d="M241.647,296.497c20.519,17.016,38.604,35.447,53.512,56.258c12.089-16.847,22.08-35.595,29.646-56.258H241.647z"/>
	</g>
</g>
<g>
	<g>
		<path d="M194.629,221.139c1.005,17.016,3.504,32.934,7.413,48.581c1.452,0.82,2.905,1.252,4.345,2.467h126.106
			c4.356-17.016,7.164-34.032,8.263-51.049H194.629z"/>
	</g>
</g>
<g>
	<g>
		<path d="M267.808,26.76c-20.976,19.312-38.215,43.665-50.74,71.62h101.999C306.606,70.425,289.246,46.044,267.808,26.76z"/>
	</g>
</g>
<g>
	<g>
		<path d="M504.452,480.753c-1.545-9.95-10.869-16.763-20.814-15.219c-39.192,6.083-78.642,6.037-117.097,0.171
			c-17.872-2.726-35.526-6.718-52.841-11.938c-11.691-59.057-50.857-115.669-107.479-153.048
			C141.984,258.314,63.814,246.273,0,268.463c4.672,67.4,46.461,134.552,110.698,176.956
			c55.667,36.751,121.796,50.674,179.981,39.299c14.472,4.862,29.183,8.926,44.073,12.179c29.353,6.413,59.391,9.681,89.636,9.681
			c21.568,0,43.247-1.658,64.845-5.011C499.183,500.021,505.997,490.702,504.452,480.753z"/>
	</g>
</g>
</svg>